<?xml version="1.0" encoding="utf-8"?>
<!-- Generator: Adobe Illustrator 25.0.0, SVG Export Plug-In . SVG Version: 6.00 Build 0)  -->
<svg version="1.1" id="katman_1" xmlns="http://www.w3.org/2000/svg" xmlns:xlink="http://www.w3.org/1999/xlink" x="0px" y="0px"
	 viewBox="0 0 560 400" style="enable-background:new 0 0 560 400;" xml:space="preserve">
<style type="text/css">
	.st0{fill:#1F1011;}
	.st1{fill:#361514;}
	.st2{fill-rule:evenodd;clip-rule:evenodd;fill:url(#SVGID_1_);}
	.st3{fill-rule:evenodd;clip-rule:evenodd;fill:url(#SVGID_2_);}
	.st4{fill-rule:evenodd;clip-rule:evenodd;fill:url(#SVGID_3_);}
	.st5{fill:#541412;}
	.st6{fill-rule:evenodd;clip-rule:evenodd;fill:url(#SVGID_4_);}
	.st7{fill-rule:evenodd;clip-rule:evenodd;fill:url(#SVGID_5_);}
	.st8{fill-rule:evenodd;clip-rule:evenodd;fill:url(#SVGID_6_);}
	.st9{fill-rule:evenodd;clip-rule:evenodd;fill:url(#SVGID_7_);}
	.st10{fill:#A7A8AC;}
	.st11{fill:#221E1F;}
</style>
<g transform="matrix(1.02763 0 0 1.02763 89.8881 154.568)">
	<path class="st0" d="M-19.4,63.5l0.2-0.4l0.3-0.1l1.4,13.6l-1,0L-19.4,63.5z"/>
	<path class="st1" d="M41.4,39.5l-0.2-0.4l-0.5,0.2l4.8,37.3h2L41.4,39.5z"/>
	
		<linearGradient id="SVGID_1_" gradientUnits="userSpaceOnUse" x1="-410.8302" y1="603.9232" x2="-409.6888" y2="603.9232" gradientTransform="matrix(7.683 -15.5792 -15.5792 -7.683 12602.085 -1665.234)">
		<stop  offset="0" style="stop-color:#9A1E22"/>
		<stop  offset="0.6" style="stop-color:#CA2D29"/>
		<stop  offset="1" style="stop-color:#CA2D29"/>
	</linearGradient>
	<path class="st2" d="M31.5,76.6l2.8,15.8l14.3-1.6l12.4-14.1H31.5z"/>
	
		<linearGradient id="SVGID_2_" gradientUnits="userSpaceOnUse" x1="-367.0446" y1="652.1843" x2="-365.9032" y2="652.1843" gradientTransform="matrix(0 12.7161 12.7161 0 -8239.4795 4743.9893)">
		<stop  offset="0" style="stop-color:#A51E23"/>
		<stop  offset="1" style="stop-color:#A51E24"/>
	</linearGradient>
	<path class="st3" d="M60.9,76.6H46.6l2,14.1L60.9,76.6z"/>
	
		<linearGradient id="SVGID_3_" gradientUnits="userSpaceOnUse" x1="-370.6633" y1="648.8915" x2="-369.5219" y2="648.8915" gradientTransform="matrix(0 14.4048 14.4048 0 -9360.9199 5415.6978)">
		<stop  offset="0" style="stop-color:#B32626"/>
		<stop  offset="1" style="stop-color:#8C181C"/>
	</linearGradient>
	<path class="st4" d="M-26.2,76.4l9.4,14.2l11.5,1.8l3.8-15.7l-16.5,0L-26.2,76.4z"/>
	<path class="st5" d="M-17.9,76.6l-8.3-0.2l9.5,14.3L-17.9,76.6z"/>
	<path class="st0" d="M-17.9,76.6l-1.3-13.5l-7,13.2L-17.9,76.6z"/>
	
		<linearGradient id="SVGID_4_" gradientUnits="userSpaceOnUse" x1="-407.6121" y1="621.829" x2="-406.4707" y2="621.829" gradientTransform="matrix(0 -39.9957 -39.9957 0 24881.4707 -16255.2832)">
		<stop  offset="0" style="stop-color:#7E131A"/>
		<stop  offset="0.8" style="stop-color:#BE2828"/>
		<stop  offset="1" style="stop-color:#AB1F25"/>
	</linearGradient>
	<path class="st6" d="M41.2,39.1L17.3-5.8l-36.4,68.9L41.2,39.1z"/>
	
		<linearGradient id="SVGID_5_" gradientUnits="userSpaceOnUse" x1="-114.4636" y1="194.9052" x2="-48.724" y2="194.9052" gradientTransform="matrix(1.0276 0 0 -1.0276 98.4651 258.1599)">
		<stop  offset="0" style="stop-color:#4A1715"/>
		<stop  offset="1" style="stop-color:#411211"/>
	</linearGradient>
	<path class="st7" d="M-19.2,63.1l60.3-24l5.4,37.5l-64.4,0L-19.2,63.1z"/>
	<path class="st1" d="M41.2,39.1l5.4,37.5h14.4L41.2,39.1z"/>
	
		<linearGradient id="SVGID_6_" gradientUnits="userSpaceOnUse" x1="-390.8189" y1="634.4093" x2="-389.6775" y2="634.4093" gradientTransform="matrix(0 54.0011 54.0011 0 -34244 21098.8887)">
		<stop  offset="0" style="stop-color:#DE472F"/>
		<stop  offset="1" style="stop-color:#C82F29"/>
	</linearGradient>
	<path class="st8" d="M3.3,54.2l23-9.1l-9-50.9L3.3,54.2z"/>
	
		<linearGradient id="SVGID_7_" gradientUnits="userSpaceOnUse" x1="-411.7179" y1="618.8546" x2="-410.5764" y2="618.8546" gradientTransform="matrix(0 -28.3783 -28.3783 0 17577.1016 -11607.2266)">
		<stop  offset="0" style="stop-color:#771215"/>
		<stop  offset="1" style="stop-color:#8C181C"/>
	</linearGradient>
	<path class="st9" d="M26.3,45.1l5.2,31.5l-32.8,0l4.7-22.4L26.3,45.1z"/>
	<g>
		<path class="st10" d="M87.5-3.6h2v97.4h-2V-3.6z"/>
		<path class="st11" d="M234.5,66.2c0.8-2.4,2-4.5,3.6-6.3c1.6-1.8,3.5-3.2,5.8-4.2c2.3-1,4.9-1.5,7.8-1.5c2.9,0,5.5,0.5,7.8,1.5
			c2.3,1,4.2,2.4,5.8,4.2c1.6,1.8,2.8,3.9,3.6,6.3c0.8,2.4,1.2,5.1,1.2,8c0,3-0.4,5.6-1.2,8.1c-0.8,2.4-2,4.5-3.6,6.3
			c-1.6,1.8-3.5,3.1-5.8,4.1c-2.3,1-4.9,1.5-7.9,1.5s-5.6-0.5-7.9-1.5c-2.3-1-4.2-2.4-5.8-4.1c-1.6-1.8-2.8-3.9-3.6-6.3
			c-0.8-2.4-1.2-5.1-1.2-8.1C233.3,71.3,233.7,68.7,234.5,66.2L234.5,66.2z M304.8,61.2c-2.4-1.4-5.1-2.2-7.9-2.2
			c-2.2,0-4.2,0.4-6,1.1c-1.8,0.8-3.4,1.8-4.7,3.2c-1.3,1.3-2.3,2.9-3,4.8c-0.7,1.8-1,3.9-1,6c0,2.3,0.4,4.4,1.1,6.2
			c0.8,1.8,1.8,3.4,3.1,4.8c1.3,1.3,2.9,2.4,4.6,3.1c1.8,0.7,3.6,1.1,5.6,1.1c0.7,0,1.4,0,2.2-0.1c0.8-0.1,1.5-0.2,2.3-0.4
			c0.8-0.2,1.5-0.4,2.2-0.6c0.7-0.2,1.3-0.5,1.7-0.8l0.3,5.4c-1.5,0.6-3,1-4.6,1.2c-1.6,0.1-3,0.2-4.1,0.2c-3.1,0-5.8-0.5-8.3-1.4
			c-2.5-0.9-4.6-2.3-6.4-4c-1.8-1.8-3.1-3.9-4.1-6.4c-1-2.5-1.5-5.3-1.5-8.3c0-3,0.5-5.7,1.5-8.1c1-2.4,2.4-4.5,4.2-6.3
			c1.8-1.7,4-3.1,6.5-4c2.5-0.9,5.2-1.4,8.1-1.4c1.5,0,3,0.1,4.4,0.4c1.4,0.2,2.9,0.7,4.3,1.3L304.8,61.2z M194.7,77.5
			c0,5.5-1.3,9.6-3.9,12.4c-2.6,2.8-6.3,4.2-11.1,4.2c-4.8,0-8.5-1.4-11.1-4.2c-2.6-2.8-3.9-7-3.9-12.4V54.9h5.5v21.9
			c0,1.8,0.2,3.5,0.5,5.1c0.3,1.5,0.8,2.9,1.6,4c0.7,1.1,1.7,2,2.9,2.6c1.2,0.6,2.7,0.9,4.5,0.9c1.8,0,3.3-0.3,4.5-0.9
			c1.2-0.6,2.2-1.5,2.9-2.6c0.7-1.1,1.3-2.4,1.6-4c0.3-1.5,0.5-3.2,0.5-5.1V54.9h5.5L194.7,77.5z M159.2,93.5h-6l-3.9-9.7h-18.9
			l-3.9,9.7h-5.8l16.4-38.7h5.8L159.2,93.5z M346.2,93.5h-6l-3.9-9.7h-18.9l-3.9,9.7h-5.8l16.4-38.7h5.8L346.2,93.5z M217.8,93.5
			h-5.5V59.7h-12v-4.9h29.5v4.9h-12V93.5z M362.8,93.5h-11.4V54.9h11.4c2.9,0,5.5,0.4,8,1.3c2.5,0.9,4.7,2.1,6.5,3.7
			c1.9,1.6,3.3,3.6,4.4,6c1.1,2.3,1.6,5,1.6,8c0,3.2-0.5,6.1-1.4,8.6c-1,2.5-2.3,4.5-4.1,6.1c-1.8,1.6-3.9,2.9-6.5,3.7
			C368.8,93.1,365.9,93.5,362.8,93.5L362.8,93.5z M239.9,79.8c0.5,1.8,1.3,3.4,2.3,4.8c1,1.4,2.3,2.6,3.9,3.4
			c1.6,0.8,3.5,1.3,5.7,1.3c2.2,0,4.1-0.4,5.7-1.3s2.9-2,3.9-3.4c1-1.4,1.8-3,2.3-4.8c0.5-1.8,0.7-3.7,0.7-5.6c0-2-0.3-3.8-0.8-5.7
			c-0.5-1.8-1.3-3.4-2.4-4.8c-1-1.4-2.4-2.5-3.9-3.4s-3.4-1.2-5.6-1.2s-4,0.4-5.6,1.2c-1.6,0.8-2.9,1.9-3.9,3.4
			c-1,1.4-1.8,3-2.4,4.8c-0.5,1.8-0.8,3.7-0.8,5.7C239.1,76.1,239.4,78,239.9,79.8L239.9,79.8z M356.9,88.7h5.8
			c4.7,0,8.4-1.2,10.9-3.5c2.5-2.4,3.8-6,3.8-11c0-2.3-0.4-4.3-1.1-6c-0.7-1.8-1.7-3.3-3-4.5c-1.3-1.2-2.8-2.2-4.5-2.8
			c-1.7-0.6-3.6-1-5.5-1h-6.5V88.7z M139.8,60.1l-7.7,19.2h15.3L139.8,60.1z M326.8,60.1l-7.7,19.2h15.3L326.8,60.1z M390.2,63.5
			c-2.7,0-4.9-2.2-4.9-4.9c0-2.7,2.2-4.9,4.9-4.9c2.7,0,4.9,2.2,4.9,4.9C395.1,61.3,392.9,63.5,390.2,63.5z M390.2,54.5
			c-2.3,0-4.2,1.9-4.2,4.2c0,2.3,1.9,4.2,4.2,4.2c2.3,0,4.2-1.9,4.2-4.2C394.4,56.3,392.5,54.5,390.2,54.5z M389,61.1h-0.7v-5.5h2
			c0.2,0,0.4,0,0.6,0.1c0.2,0,0.4,0.1,0.6,0.3c0.2,0.1,0.3,0.3,0.4,0.5c0.1,0.2,0.2,0.4,0.2,0.7c0,0.3-0.1,0.6-0.3,0.9
			c-0.2,0.3-0.4,0.4-0.8,0.5l1.1,2.5h-0.7l-1-2.4H389L389,61.1z M390.3,58.2c0.2,0,0.4,0,0.5,0c0.2,0,0.3-0.1,0.4-0.3
			c0.1-0.1,0.2-0.2,0.2-0.3c0-0.1,0.1-0.3,0.1-0.4c0-0.2,0-0.3-0.1-0.4c-0.1-0.1-0.2-0.2-0.3-0.3c-0.1-0.1-0.2-0.1-0.4-0.2
			c-0.1,0-0.2,0-0.4,0H389v1.9L390.3,58.2z M188.7,20.5c0,2.8-0.5,5.1-1.4,7c-0.9,1.8-2.1,3.3-3.4,4.3c-1.4,1-2.9,1.8-4.5,2.2
			c-1.6,0.4-3.1,0.6-4.5,0.6s-2.9-0.2-4.5-0.6c-1.6-0.4-3.1-1.1-4.5-2.2c-1.4-1-2.5-2.5-3.4-4.3c-0.9-1.8-1.4-4.1-1.4-7V-4.4h3.8
			v24.9c0,1.6,0.2,3,0.6,4.3c0.4,1.3,1.1,2.4,1.9,3.4c0.9,0.9,1.9,1.7,3.2,2.2c1.3,0.5,2.7,0.8,4.4,0.8s3.1-0.3,4.4-0.8
			c1.3-0.5,2.3-1.3,3.2-2.2c0.9-0.9,1.5-2.1,1.9-3.4c0.4-1.3,0.6-2.8,0.6-4.3V-4.4h3.8L188.7,20.5z M327.5,29
			c1.1,0.7,2.4,1.3,3.7,1.7c1.3,0.4,2.9,0.6,4.7,0.6c1.2,0,2.3-0.2,3.3-0.5c1-0.3,2-0.8,2.7-1.4c0.8-0.6,1.4-1.5,1.9-2.4
			c0.5-1,0.7-2.2,0.7-3.5c0-1.2-0.4-2.3-1.3-3.3c-0.9-0.9-1.9-1.8-3.3-2.6c-1.3-0.8-2.7-1.6-4.2-2.4c-1.5-0.8-2.9-1.7-4.2-2.6
			c-1.3-0.9-2.4-2-3.3-3.2c-0.9-1.2-1.3-2.6-1.3-4.3c0-1.5,0.3-2.9,0.9-4.1c0.6-1.2,1.5-2.3,2.6-3.1c1.1-0.9,2.4-1.5,3.9-2
			c1.5-0.5,3.1-0.7,4.7-0.7c0.9,0,2.1,0.1,3.5,0.2c1.4,0.2,2.7,0.5,4,1L346-0.3c-0.8-0.5-1.9-0.8-3.1-1.1c-1.3-0.2-2.5-0.4-3.8-0.4
			c-1,0-2,0.1-3,0.3c-1,0.2-1.9,0.6-2.7,1.1c-0.8,0.5-1.4,1.2-1.9,2c-0.5,0.8-0.7,1.9-0.7,3.1c0,1.3,0.4,2.4,1.3,3.3
			c0.9,0.9,1.9,1.8,3.3,2.5c1.3,0.8,2.7,1.6,4.2,2.3c1.5,0.7,2.9,1.6,4.2,2.6c1.3,1,2.4,2.1,3.3,3.4c0.9,1.3,1.3,2.9,1.3,4.7
			c0,1.9-0.4,3.6-1.1,5c-0.7,1.4-1.7,2.5-2.9,3.3c-1.2,0.9-2.6,1.5-4.1,1.9c-1.5,0.4-3,0.6-4.4,0.6c-1.9,0-3.5-0.2-5-0.5
			c-1.4-0.3-2.7-0.7-3.7-1.1L327.5,29z M224.3,7.3c0.7-2.4,1.7-4.5,3.1-6.3c1.4-1.8,3.1-3.3,5.3-4.4c2.1-1.1,4.6-1.6,7.5-1.6
			c2.9,0,5.4,0.5,7.5,1.6c2.1,1.1,3.9,2.6,5.3,4.4c1.4,1.8,2.4,3.9,3.1,6.3c0.7,2.4,1,4.9,1,7.4c0,2.9-0.4,5.6-1.1,8
			c-0.7,2.4-1.8,4.5-3.2,6.2c-1.4,1.7-3.2,3.1-5.3,4c-2.1,1-4.5,1.5-7.3,1.5c-2.7,0-5.2-0.5-7.3-1.5c-2.1-1-3.9-2.3-5.3-4
			c-1.4-1.7-2.5-3.8-3.2-6.2c-0.7-2.4-1.1-5.1-1.1-8C223.3,12.2,223.7,9.7,224.3,7.3z M320.5,33.9h-19.4V-4.4h18.7v3.3h-14.9v13.6
			h14.2v3.3h-14.2v14.7h15.6L320.5,33.9z M208.7,33.9h-3.8V-1.1h-11.3v-3.3h26.3v3.3h-11.3V33.9z M271,33.9h-6.7V-4.4h9.5
			c3.4,0,6.3,0.5,8.8,1.4c2.4,0.9,4.4,2.2,5.9,3.9c1.5,1.7,2.7,3.7,3.4,6c0.7,2.3,1.1,4.9,1.1,7.7c0,3.5-0.5,6.4-1.6,8.8
			c-1.1,2.4-2.6,4.4-4.6,5.9c-2,1.5-4.3,2.6-6.9,3.3C277.1,33.5,274.2,33.9,271,33.9z M360.2,33.9h-3.8V-4.4h3.8v17.1l17.2-17.1h4.9
			l-18.5,18l20.1,20.2h-5.2l-18.5-19.1L360.2,33.9z M155.8,33.9h-3.9l-4.1-10.2h-19.3l-4.1,10.2h-3.7l15.7-38.2h4.3L155.8,33.9z
			 M234.4-0.3c-1.6,0.9-3,2.2-4.1,3.8c-1.1,1.6-1.9,3.3-2.4,5.3c-0.5,2-0.8,4-0.8,6c0,2,0.3,4,0.8,6c0.5,2,1.3,3.7,2.4,5.3
			c1.1,1.6,2.4,2.8,4.1,3.8c1.6,0.9,3.6,1.4,5.8,1.4c2.2,0,4.2-0.5,5.8-1.4c1.6-0.9,3-2.2,4.1-3.8c1.1-1.6,1.9-3.3,2.4-5.3
			c0.5-2,0.8-4,0.8-6c0-2-0.3-4-0.8-6c-0.5-2-1.3-3.7-2.4-5.3c-1.1-1.6-2.4-2.8-4.1-3.8c-1.6-0.9-3.6-1.4-5.8-1.4
			C237.9-1.7,236-1.3,234.4-0.3z M268.1,30.6h3.1c2.7,0,5.2-0.3,7.4-0.9c2.2-0.6,4.1-1.5,5.6-2.8c1.6-1.3,2.8-2.9,3.6-5
			c0.9-2,1.3-4.5,1.3-7.4c0-2.9-0.4-5.4-1.2-7.4c-0.8-2-1.9-3.6-3.3-4.8c-1.4-1.2-3-2.1-4.9-2.6c-1.9-0.5-3.9-0.8-6-0.8h-5.5
			L268.1,30.6z M138.3-0.7l-8.3,21.1h16.6L138.3-0.7z M391.2,4.4c-2.7,0-4.9-2.2-4.9-4.9s2.2-4.9,4.9-4.9c2.7,0,4.9,2.2,4.9,4.9
			S394,4.4,391.2,4.4z M391.2-4.6c-2.3,0-4.2,1.9-4.2,4.2s1.9,4.2,4.2,4.2c2.3,0,4.2-1.9,4.2-4.2S393.5-4.6,391.2-4.6z M390.1,2
			h-0.7v-5.5h2c0.2,0,0.4,0,0.6,0.1c0.2,0,0.4,0.1,0.6,0.3c0.2,0.1,0.3,0.3,0.4,0.5c0.1,0.2,0.2,0.4,0.2,0.7c0,0.3-0.1,0.6-0.3,0.9
			c-0.2,0.3-0.4,0.4-0.7,0.5l1.1,2.5h-0.7l-1-2.4h-1.5L390.1,2z M391.3-1c0.2,0,0.4,0,0.5,0c0.2,0,0.3-0.1,0.4-0.3
			c0.1-0.1,0.2-0.2,0.2-0.3c0-0.1,0.1-0.3,0.1-0.4c0-0.2,0-0.3-0.1-0.4c-0.1-0.1-0.2-0.2-0.3-0.3c-0.1-0.1-0.2-0.1-0.4-0.2
			c-0.1,0-0.3,0-0.4,0h-1.4V-1L391.3-1z"/>
	</g>
</g>
</svg>
