<?xml version="1.0" encoding="utf-8"?>
<!-- Generator: Adobe Illustrator 25.2.0, SVG Export Plug-In . SVG Version: 6.00 Build 0)  -->
<svg version="1.1" id="architecture" xmlns="http://www.w3.org/2000/svg" xmlns:xlink="http://www.w3.org/1999/xlink" x="0px"
	 y="0px" viewBox="0 0 31 31" style="enable-background:new 0 0 31 31;" xml:space="preserve">
<style type="text/css">
	.st0{fill:#2CA9BC;}
</style>
<path id="primary" d="M23,6.3l-9.7-5.6c-0.5-0.3-1-0.3-1.5,0L2,6.3C1.1,6.8,0.5,7.8,0.5,8.9V29c0,0.8,0.7,1.5,1.5,1.5h9
	c0.4,0,0.7-0.1,1-0.3l12-10c0.3-0.3,0.5-0.7,0.5-1.2V8.9C24.5,7.8,23.9,6.8,23,6.3z"/>
<path id="secondary" class="st0" d="M29.6,12.7c-0.5-0.2-1.1-0.2-1.6,0.2l-18,15c-0.5,0.4-0.7,1.1-0.4,1.7c0.2,0.6,0.8,1,1.4,1h18
	c0.8,0,1.5-0.7,1.5-1.5V14C30.5,13.4,30.2,12.9,29.6,12.7z"/>
</svg>
